name analog
datacolumns 19
datarows 71
range 0.6885 0.7235
endheader
time	ground_force_vx	ground_force_vy	ground_force_vz	ground_force_px	ground_force_py	ground_force_pz	l_ground_force_vx	l_ground_force_vy	l_ground_force_vz	l_ground_force_px	l_ground_force_py	l_ground_force_pz	ground_torque_x	ground_torque_y	ground_torque_z	l_ground_torque_x	l_ground_torque_y	l_ground_torque_z
0.6885	-0.0	-0.0	-0.0	2.8254075050354004	2.3784408569335938	-821.9561157226562	-0.0	-0.0	-0.0	-0.0	-0.0	-0.0	-0.0	-0.0	-0.0	-0.0	-0.0	-0.0
0.6890000000000001	-0.0	-0.0	-0.0	1.7243061065673828	1.6921875476837158	-819.4780883789062	-0.0	-0.0	-0.0	-0.0	-0.0	-0.0	-0.0	-0.0	-0.0	-0.0	-0.0	-0.0
0.6895	-0.0	-0.0	-0.0	1.1290661096572876	1.664233922958374	-820.7901611328125	-0.0	-0.0	-0.0	-0.0	-0.0	-0.0	-0.0	-0.0	-0.0	-0.0	-0.0	-0.0
0.6900000000000001	-0.0	-0.0	-0.0	1.0720359086990356	2.077698230743408	-821.3748168945312	-0.0	-0.0	-0.0	-0.0	-0.0	-0.0	-0.0	-0.0	-0.0	-0.0	-0.0	-0.0
0.6905	-0.0	-0.0	-0.0	1.310538411140442	2.464883327484131	-819.9618530273438	-0.0	-0.0	-0.0	-0.0	-0.0	-0.0	-0.0	-0.0	-0.0	-0.0	-0.0	-0.0
0.6910000000000001	-0.0	-0.0	-0.0	1.7550392150878906	2.7613465785980225	-818.5556030273438	-0.0	-0.0	-0.0	-0.0	-0.0	-0.0	-0.0	-0.0	-0.0	-0.0	-0.0	-0.0
0.6915	-0.0	-0.0	-0.0	2.1428589820861816	3.241413116455078	-817.611572265625	-0.0	-0.0	-0.0	-0.0	-0.0	-0.0	-0.0	-0.0	-0.0	-0.0	-0.0	-0.0
0.6920000000000001	-0.0	-0.0	-0.0	2.022733211517334	3.7706758975982666	-815.9609375	-0.0	-0.0	-0.0	-0.0	-0.0	-0.0	-0.0	-0.0	-0.0	-0.0	-0.0	-0.0
0.6925	-0.0	-0.0	-0.0	1.7260661125183103	4.249213218688965	-816.083740234375	-0.0	-0.0	-0.0	-0.0	-0.0	-0.0	-0.0	-0.0	-0.0	-0.0	-0.0	-0.0
0.6930000000000001	-0.0	-0.0	-0.0	1.3983324766159058	4.578863620758057	-814.4329833984375	-0.0	-0.0	-0.0	-0.0	-0.0	-0.0	-0.0	-0.0	-0.0	-0.0	-0.0	-0.0
0.6935	-0.0	-0.0	-0.0	1.6927967071533203	4.3651885986328125	-814.4329833984375	-0.0	-0.0	-0.0	-0.0	-0.0	-0.0	-0.0	-0.0	-0.0	-0.0	-0.0	-0.0
0.6940000000000001	-0.0	-0.0	-0.0	1.7216811180114746	4.403204917907715	-815.0427856445312	-0.0	-0.0	-0.0	-0.0	-0.0	-0.0	-0.0	-0.0	-0.0	-0.0	-0.0	-0.0
0.6945	-0.0	-0.0	-0.0	2.1434531211853027	4.246950149536133	-816.1988525390625	-0.0	-0.0	-0.0	-0.0	-0.0	-0.0	-0.0	-0.0	-0.0	-0.0	-0.0	-0.0
0.6950000000000001	-0.0	-0.0	-0.0	0.6508635878562927	3.948103904724121	-816.5619506835938	-0.0	-0.0	-0.0	-0.0	-0.0	-0.0	-0.0	-0.0	-0.0	-0.0	-0.0	-0.0
0.6955	-0.0	-0.0	-0.0	-0.0314623937010765	4.451348304748535	-813.3631591796875	-0.0	-0.0	-0.0	-0.0	-0.0	-0.0	-0.0	-0.0	-0.0	-0.0	-0.0	-0.0
0.6960000000000001	-0.0	-0.0	-0.0	-0.8578721880912781	4.603273868560791	-814.21533203125	-0.0	-0.0	-0.0	-0.0	-0.0	-0.0	-0.0	-0.0	-0.0	-0.0	-0.0	-0.0
0.6965	-0.0	-0.0	-0.0	-1.5713741779327393	4.902172088623047	-817.0414428710938	-0.0	-0.0	-0.0	-0.0	-0.0	-0.0	-0.0	-0.0	-0.0	-0.0	-0.0	-0.0
0.6970000000000001	-0.0	-0.0	-0.0	-2.316599130630493	4.568660259246826	-816.7799072265625	-0.0	-0.0	-0.0	-0.0	-0.0	-0.0	-0.0	-0.0	-0.0	-0.0	-0.0	-0.0
0.6975	-0.0	-0.0	-0.0	-2.261988639831543	4.574367046356201	-821.2808227539062	-0.0	-0.0	-0.0	-0.0	-0.0	-0.0	-0.0	-0.0	-0.0	-0.0	-0.0	-0.0
0.6980000000000001	-0.0	-0.0	-0.0	-1.7011853456497192	3.832607269287109	-821.269287109375	-0.0	-0.0	-0.0	-0.0	-0.0	-0.0	-0.0	-0.0	-0.0	-0.0	-0.0	-0.0
0.6985	-0.0	-0.0	-0.0	-0.7423637509346008	3.447431802749634	-822.2154541015625	-0.0	-0.0	-0.0	-0.0	-0.0	-0.0	-0.0	-0.0	-0.0	-0.0	-0.0	-0.0
0.6990000000000001	-0.0	-0.0	-0.0	0.0540057569742202	2.941303253173828	-819.0242919921875	-0.0	-0.0	-0.0	-0.0	-0.0	-0.0	-0.0	-0.0	-0.0	-0.0	-0.0	-0.0
0.6995	-0.0	-0.0	-0.0	0.0218267142772674	2.4384889602661133	-818.4446411132812	-0.0	-0.0	-0.0	-0.0	-0.0	-0.0	-0.0	-0.0	-0.0	-0.0	-0.0	-0.0
0.7000000000000001	-0.0	-0.0	-0.0	-0.0892105102539062	1.957403421401977	-816.8195190429688	-0.0	-0.0	-0.0	-0.0	-0.0	-0.0	-0.0	-0.0	-0.0	-0.0	-0.0	-0.0
0.7005	-0.0	-0.0	-0.0	0.4139305055141449	0.948341190814972	-816.3259887695312	-0.0	-0.0	-0.0	-0.0	-0.0	-0.0	-0.0	-0.0	-0.0	-0.0	-0.0	-0.0
0.7010000000000001	-0.0	-0.0	-0.0	0.0533284544944763	0.2352252006530761	-814.065185546875	-0.0	-0.0	-0.0	-0.0	-0.0	-0.0	-0.0	-0.0	-0.0	-0.0	-0.0	-0.0
0.7015	-0.0	-0.0	-0.0	0.613113522529602	-0.3527383208274841	-811.6075439453125	-0.0	-0.0	-0.0	-0.0	-0.0	-0.0	-0.0	-0.0	-0.0	-0.0	-0.0	-0.0
0.7020000000000001	-0.0	-0.0	-0.0	1.0666508674621582	-1.6082189083099363	-806.9189453125	-0.0	-0.0	-0.0	-0.0	-0.0	-0.0	-0.0	-0.0	-0.0	-0.0	-0.0	-0.0
0.7025	-0.0	-0.0	-0.0	1.9262535572052	-2.641547918319702	-801.2527465820312	-0.0	-0.0	-0.0	-0.0	-0.0	-0.0	-0.0	-0.0	-0.0	-0.0	-0.0	-0.0
0.7030000000000001	-0.0	-0.0	-0.0	3.215672254562378	-4.043304920196533	-794.3179321289062	-0.0	-0.0	-0.0	-0.0	-0.0	-0.0	-0.0	-0.0	-0.0	-0.0	-0.0	-0.0
0.7035	-0.0	-0.0	-0.0	2.643796920776367	-4.845530986785889	-786.8848876953125	-0.0	-0.0	-0.0	-0.0	-0.0	-0.0	-0.0	-0.0	-0.0	-0.0	-0.0	-0.0
0.704	-0.0	-0.0	-0.0	2.689160108566284	-5.347824096679688	-777.6240234375	-0.0	-0.0	-0.0	-0.0	-0.0	-0.0	-0.0	-0.0	-0.0	-0.0	-0.0	-0.0
0.7045	-0.0	-0.0	-0.0	2.0888967514038086	-5.108680725097656	-768.5717163085938	-0.0	-0.0	-0.0	-0.0	-0.0	-0.0	-0.0	-0.0	-0.0	-0.0	-0.0	-0.0
0.705	-0.0	-0.0	-0.0	1.5492949485778809	-4.897706985473633	-757.51220703125	-0.0	-0.0	-0.0	-0.0	-0.0	-0.0	-0.0	-0.0	-0.0	-0.0	-0.0	-0.0
0.7055	-0.0	-0.0	-0.0	0.5962628722190857	-4.06266450881958	-744.6121215820312	-0.0	-0.0	-0.0	-0.0	-0.0	-0.0	-0.0	-0.0	-0.0	-0.0	-0.0	-0.0
0.706	-0.0	-0.0	-0.0	0.3286677896976471	-4.067165851593018	-734.6884765625	-0.0	-0.0	-0.0	-0.0	-0.0	-0.0	-0.0	-0.0	-0.0	-0.0	-0.0	-0.0
0.7065	-0.0	-0.0	-0.0	-0.3707364201545715	-3.9451165199279785	-721.342529296875	-0.0	-0.0	-0.0	-0.0	-0.0	-0.0	-0.0	-0.0	-0.0	-0.0	-0.0	-0.0
0.707	-0.0	-0.0	-0.0	-0.9483374357223512	-4.00601053237915	-708.6094970703125	-0.0	-0.0	-0.0	-0.0	-0.0	-0.0	-0.0	-0.0	-0.0	-0.0	-0.0	-0.0
0.7075	-0.0	-0.0	-0.0	-0.71368408203125	-4.372356414794922	-696.883056640625	-0.0	-0.0	-0.0	-0.0	-0.0	-0.0	-0.0	-0.0	-0.0	-0.0	-0.0	-0.0
0.708	-0.0	-0.0	-0.0	-0.2395778596401214	-4.344406127929688	-685.3401489257812	-0.0	-0.0	-0.0	-0.0	-0.0	-0.0	-0.0	-0.0	-0.0	-0.0	-0.0	-0.0
0.7085	-0.0	-0.0	-0.0	0.0840516984462738	-4.166290760040283	-673.312744140625	-0.0	-0.0	-0.0	-0.0	-0.0	-0.0	-0.0	-0.0	-0.0	-0.0	-0.0	-0.0
0.709	-0.0	-0.0	-0.0	0.0559615939855575	-4.283522605895996	-663.403564453125	-0.0	-0.0	-0.0	-0.0	-0.0	-0.0	-0.0	-0.0	-0.0	-0.0	-0.0	-0.0
0.7095	-0.0	-0.0	-0.0	-0.0892105102539062	-4.061349868774414	-653.75732421875	-0.0	-0.0	-0.0	-0.0	-0.0	-0.0	-0.0	-0.0	-0.0	-0.0	-0.0	-0.0
0.71	-0.0	-0.0	-0.0	-0.4072222709655761	-4.3619384765625	-647.0904541015625	-0.0	-0.0	-0.0	-0.0	-0.0	-0.0	-0.0	-0.0	-0.0	-0.0	-0.0	-0.0
0.7105	-0.0	-0.0	-0.0	-0.3233949542045593	-5.119410514831543	-641.3084716796875	-0.0	-0.0	-0.0	-0.0	-0.0	-0.0	-0.0	-0.0	-0.0	-0.0	-0.0	-0.0
0.711	-0.0	-0.0	-0.0	-0.3511673808097839	-4.573470592498779	-636.4751586914062	-0.0	-0.0	-0.0	-0.0	-0.0	-0.0	-0.0	-0.0	-0.0	-0.0	-0.0	-0.0
0.7115	-0.0	-0.0	-0.0	-0.3175163865089416	-4.367389678955078	-633.4073486328125	-0.0	-0.0	-0.0	-0.0	-0.0	-0.0	-0.0	-0.0	-0.0	-0.0	-0.0	-0.0
0.712	-0.0	-0.0	-0.0	-0.7575241327285767	-4.222743988037109	-629.7198486328125	-0.0	-0.0	-0.0	-0.0	-0.0	-0.0	-0.0	-0.0	-0.0	-0.0	-0.0	-0.0
0.7125	-0.0	-0.0	-0.0	-2.642597198486328	-4.094031810760498	-631.8388671875	-0.0	-0.0	-0.0	-0.0	-0.0	-0.0	-0.0	-0.0	-0.0	-0.0	-0.0	-0.0
0.713	-0.0	-0.0	-0.0	-3.700999975204468	-4.511917591094971	-629.9154663085938	-0.0	-0.0	-0.0	-0.0	-0.0	-0.0	-0.0	-0.0	-0.0	-0.0	-0.0	-0.0
0.7135	-0.0	-0.0	-0.0	-4.3097920417785645	-4.945210933685303	-630.5357666015625	-0.0	-0.0	-0.0	-0.0	-0.0	-0.0	-0.0	-0.0	-0.0	-0.0	-0.0	-0.0
0.714	-0.0	-0.0	-0.0	-4.275846481323242	-5.415580749511719	-632.7890014648438	-0.0	-0.0	-0.0	-0.0	-0.0	-0.0	-0.0	-0.0	-0.0	-0.0	-0.0	-0.0
0.7145	-0.0	-0.0	-0.0	-4.432900905609131	-4.96370267868042	-634.589111328125	-0.0	-0.0	-0.0	-0.0	-0.0	-0.0	-0.0	-0.0	-0.0	-0.0	-0.0	-0.0
0.715	-0.0	-0.0	-0.0	-4.804476737976074	-4.545650482177734	-640.257080078125	-0.0	-0.0	-0.0	-0.0	-0.0	-0.0	-0.0	-0.0	-0.0	-0.0	-0.0	-0.0
0.7155	-0.0	-0.0	-0.0	-5.571712970733643	-5.018829822540283	-645.2338256835938	-0.0	-0.0	-0.0	-0.0	-0.0	-0.0	-0.0	-0.0	-0.0	-0.0	-0.0	-0.0
0.716	-0.0	-0.0	-0.0	-6.025522708892822	-5.231192588806152	-650.4221801757812	-0.0	-0.0	-0.0	-0.0	-0.0	-0.0	-0.0	-0.0	-0.0	-0.0	-0.0	-0.0
0.7165	-0.0	-0.0	-0.0	-5.716215133666992	-5.169563293457031	-659.1426391601562	-0.0	-0.0	-0.0	-0.0	-0.0	-0.0	-0.0	-0.0	-0.0	-0.0	-0.0	-0.0
0.717	-0.0	-0.0	-0.0	-5.421239852905273	-4.984457015991211	-665.2551879882812	-0.0	-0.0	-0.0	-0.0	-0.0	-0.0	-0.0	-0.0	-0.0	-0.0	-0.0	-0.0
0.7175	-0.0	-0.0	-0.0	-6.004523754119873	-4.963907718658447	-671.8017578125	-0.0	-0.0	-0.0	-0.0	-0.0	-0.0	-0.0	-0.0	-0.0	-0.0	-0.0	-0.0
0.718	-0.0	-0.0	-0.0	-6.656358242034912	-4.997568130493164	-679.4624633789062	-0.0	-0.0	-0.0	-0.0	-0.0	-0.0	-0.0	-0.0	-0.0	-0.0	-0.0	-0.0
0.7185	-0.0	-0.0	-0.0	-8.118156433105469	-5.114904880523682	-686.4735107421875	-0.0	-0.0	-0.0	-0.0	-0.0	-0.0	-0.0	-0.0	-0.0	-0.0	-0.0	-0.0
0.719	-0.0	-0.0	-0.0	-8.59152603149414	-5.018595218658447	-694.539306640625	-0.0	-0.0	-0.0	-0.0	-0.0	-0.0	-0.0	-0.0	-0.0	-0.0	-0.0	-0.0
0.7195	-0.0	-0.0	-0.0	-9.16872787475586	-5.62254524230957	-702.0636596679688	-0.0	-0.0	-0.0	-0.0	-0.0	-0.0	-0.0	-0.0	-0.0	-0.0	-0.0	-0.0
0.72	-0.0	-0.0	-0.0	-8.613801002502441	-6.0608673095703125	-714.7477416992188	-0.0	-0.0	-0.0	-0.0	-0.0	-0.0	-0.0	-0.0	-0.0	-0.0	-0.0	-0.0
0.7205	-0.0	-0.0	-0.0	-7.780978202819824	-5.580472946166992	-723.8811645507812	-0.0	-0.0	-0.0	-0.0	-0.0	-0.0	-0.0	-0.0	-0.0	-0.0	-0.0	-0.0
0.721	-0.0	-0.0	-0.0	-6.527612209320068	-5.684789657592773	-732.37451171875	-0.0	-0.0	-0.0	-0.0	-0.0	-0.0	-0.0	-0.0	-0.0	-0.0	-0.0	-0.0
0.7215	-0.0	-0.0	-0.0	-5.088963508605957	-5.080432891845703	-742.5074462890625	-0.0	-0.0	-0.0	-0.0	-0.0	-0.0	-0.0	-0.0	-0.0	-0.0	-0.0	-0.0
0.722	-0.0	-0.0	-0.0	-5.050034999847412	-5.018401145935059	-754.7908325195312	-0.0	-0.0	-0.0	-0.0	-0.0	-0.0	-0.0	-0.0	-0.0	-0.0	-0.0	-0.0
0.7225	-0.0	-0.0	-0.0	-5.503954887390137	-5.250781059265137	-763.6641845703125	-0.0	-0.0	-0.0	-0.0	-0.0	-0.0	-0.0	-0.0	-0.0	-0.0	-0.0	-0.0
0.723	-0.0	-0.0	-0.0	-5.679438591003418	-5.142527103424072	-771.0353393554688	-0.0	-0.0	-0.0	-0.0	-0.0	-0.0	-0.0	-0.0	-0.0	-0.0	-0.0	-0.0
0.7235	-0.0	-0.0	-0.0	-6.912509918212891	-5.331562042236328	-777.5733642578125	-0.0	-0.0	-0.0	-0.0	-0.0	-0.0	-0.0	-0.0	-0.0	-0.0	-0.0	-0.0
